<svg width="64" height="64" viewBox="0 0 64 64" fill="none" xmlns="http://www.w3.org/2000/svg">
<path d="M0 20C0 8.95431 8.95431 0 20 0H64V44C64 55.0457 55.0457 64 44 64H0V20Z" fill="#693BFF"/>
<path d="M25.0918 41.2263H26.6757L39.5079 22.4343H37.924L25.0918 41.2263Z" fill="white"/>
<path d="M26.5414 32.5014C29.0381 32.5014 30.783 30.488 30.783 27.4007C30.783 24.3135 29.0381 22.3 26.5414 22.3C24.0179 22.3 22.2998 24.3403 22.2998 27.4007C22.2998 30.4611 24.0179 32.5014 26.5414 32.5014ZM26.5414 31.2933C24.7696 31.2933 23.6421 29.8168 23.6421 27.4007C23.6421 24.9846 24.7696 23.5081 26.5414 23.5081C28.2864 23.5081 29.4407 24.9578 29.4407 27.4007C29.4407 29.8437 28.2864 31.2933 26.5414 31.2933ZM38.0582 41.3605C40.5817 41.3605 42.2998 39.3202 42.2998 36.2598C42.2998 33.1994 40.5817 31.1591 38.0582 31.1591C35.5615 31.1591 33.8166 33.1994 33.8166 36.2598C33.8166 39.3202 35.5615 41.3605 38.0582 41.3605ZM38.0582 40.1524C36.3132 40.1524 35.1589 38.7027 35.1589 36.2598C35.1589 33.8168 36.3132 32.3672 38.0582 32.3672C39.83 32.3672 40.9575 33.8437 40.9575 36.2598C40.9575 38.6759 39.83 40.1524 38.0582 40.1524Z" fill="white"/>
<path fill-rule="evenodd" clip-rule="evenodd" d="M29.8282 31.3019C29.0217 32.2603 27.8766 32.8013 26.5416 32.8013C25.1926 32.8013 24.0472 32.2531 23.2442 31.2909C22.4449 30.3332 22 28.9852 22 27.4007C22 25.8162 22.4449 24.4681 23.2442 23.5105C24.0472 22.5483 25.1926 22 26.5416 22C27.8766 22 29.0217 22.5411 29.8282 23.4995C30.6312 24.4537 31.0832 25.8021 31.0832 27.4007C31.0832 28.9992 30.6312 30.3476 29.8282 31.3019ZM24.6675 30.073C25.1135 30.6676 25.7489 30.9933 26.5416 30.9933C27.3218 30.9933 27.9576 30.6736 28.4067 30.0817C28.8622 29.4814 29.1409 28.5789 29.1409 27.4007C29.1409 26.2224 28.8622 25.3199 28.4067 24.7196C27.9576 24.1278 27.3218 23.8081 26.5416 23.8081C25.7489 23.8081 25.1135 24.1337 24.6675 24.7283C24.2147 25.332 23.9423 26.235 23.9423 27.4007C23.9423 28.5663 24.2147 29.4693 24.6675 30.073ZM41.3558 40.1499C40.5528 41.1121 39.4074 41.6604 38.0584 41.6604C36.7221 41.6604 35.5772 41.1116 34.7714 40.1505C33.969 39.1933 33.5168 37.8454 33.5168 36.2597C33.5168 34.6741 33.969 33.3262 34.7714 32.369C35.5772 31.4078 36.7221 30.8591 38.0584 30.8591C39.4074 30.8591 40.5528 31.4074 41.3558 32.3695C42.1551 33.3272 42.6 34.6752 42.6 36.2597C42.6 37.8442 42.1551 39.1923 41.3558 40.1499ZM36.1933 38.9408C36.6424 39.5326 37.2782 39.8524 38.0584 39.8524C38.8511 39.8524 39.4865 39.5267 39.9325 38.9321C40.3853 38.3284 40.6577 37.4254 40.6577 36.2597C40.6577 35.0941 40.3853 34.1911 39.9325 33.5874C39.4865 32.9928 38.8511 32.6671 38.0584 32.6671C37.2782 32.6671 36.6424 32.9868 36.1933 33.5787C35.7378 34.179 35.4591 35.0815 35.4591 36.2597C35.4591 37.438 35.7378 38.3405 36.1933 38.9408ZM30.7832 27.4007C30.7832 30.4879 29.0383 32.5013 26.5416 32.5013C24.0181 32.5013 22.3 30.4611 22.3 27.4007C22.3 24.3403 24.0181 22.3 26.5416 22.3C29.0383 22.3 30.7832 24.3134 30.7832 27.4007ZM23.6423 27.4007C23.6423 29.8168 24.7698 31.2933 26.5416 31.2933C28.2866 31.2933 29.4409 29.8436 29.4409 27.4007C29.4409 24.9577 28.2866 23.5081 26.5416 23.5081C24.7698 23.5081 23.6423 24.9846 23.6423 27.4007ZM42.3 36.2597C42.3 39.3201 40.5819 41.3604 38.0584 41.3604C35.5617 41.3604 33.8168 39.3201 33.8168 36.2597C33.8168 33.1993 35.5617 31.1591 38.0584 31.1591C40.5819 31.1591 42.3 33.1993 42.3 36.2597ZM35.1591 36.2597C35.1591 38.7027 36.3134 40.1524 38.0584 40.1524C39.8302 40.1524 40.9577 38.6758 40.9577 36.2597C40.9577 33.8436 39.8302 32.3671 38.0584 32.3671C36.3134 32.3671 35.1591 33.8168 35.1591 36.2597Z" fill="white"/>
</svg>
