<svg width="128" height="113" viewBox="0 0 128 113" fill="none" xmlns="http://www.w3.org/2000/svg">
    <path d="M41.2403 75.0011H41.2462C41.251 75.0011 41.2559 75.0001 41.2608 75.0001H109.25C110.924 75.0001 112.396 73.8898 112.856 72.2804L127.856 19.7803C128.179 18.6485 127.952 17.4317 127.244 16.4922C126.535 15.5528 125.427 15 124.25 15H32.5919L29.9112 2.93653C29.5293 1.2207 28.0079 0 26.25 0H3.75001C1.67871 0 0 1.67871 0 3.75001C0 5.8213 1.67871 7.50001 3.75001 7.50001H23.2422C23.7168 9.63771 36.0704 65.2296 36.7813 68.4278C32.796 70.1603 30 74.1339 30 78.7501C30 84.9533 35.0469 90.0002 41.2501 90.0002H109.25C111.321 90.0002 113 88.3214 113 86.2501C113 84.1788 111.321 82.5001 109.25 82.5001H41.2501C39.1827 82.5001 37.5001 80.8175 37.5001 78.7501C37.5001 76.6857 39.1768 75.006 41.2403 75.0011ZM119.279 22.5L106.421 67.5001H44.2579L34.2579 22.5H119.279Z" fill="#E2DFD9"/>
    <path d="M37.5001 101.25C37.5001 107.453 42.5469 112.5 48.7501 112.5C54.9532 112.5 60.0001 107.453 60.0001 101.25C60.0001 95.0469 54.9532 90 48.7501 90C42.5469 90 37.5001 95.0469 37.5001 101.25ZM48.7501 97.5C50.8175 97.5 52.5001 99.1826 52.5001 101.25C52.5001 103.317 50.8175 105 48.7501 105C46.6827 105 45.0001 103.317 45.0001 101.25C45.0001 99.1826 46.6827 97.5 48.7501 97.5Z" fill="#E2DFD9"/>
    <path d="M90.5001 101.25C90.5001 107.453 95.547 112.5 101.75 112.5C107.953 112.5 113 107.453 113 101.25C113 95.0469 107.953 90 101.75 90C95.547 90 90.5001 95.0469 90.5001 101.25ZM101.75 97.5C103.818 97.5 105.5 99.1826 105.5 101.25C105.5 103.317 103.818 105 101.75 105C99.6828 105 98.0001 103.317 98.0001 101.25C98.0001 99.1826 99.6828 97.5 101.75 97.5Z" fill="#E2DFD9"/>
</svg>
