<svg width="16" height="16" viewBox="0 0 16 16" fill="none" xmlns="http://www.w3.org/2000/svg">
<path d="M10.5 8.5H5.5C5.224 8.5 5 8.724 5 9C5 9.276 5.224 9.5 5.5 9.5H10.5C10.776 9.5 11 9.276 11 9C11 8.724 10.776 8.5 10.5 8.5ZM11.5 5.5H4.5C4.224 5.5 4 5.724 4 6C4 6.276 4.224 6.5 4.5 6.5H11.5C11.776 6.5 12 6.276 12 6C12 5.724 11.776 5.5 11.5 5.5ZM8 0C3.58201 0 0 3.13399 0 7C0 9.20952 1.1725 11.1765 3 12.4595V16L6.5045 13.8735C6.98952 13.9535 7.4885 14 8 14C12.4185 14 16 10.866 16 7C16 3.13399 12.4185 0 8 0ZM8 13C7.416 13 6.852 12.932 6.30999 12.8165L3.95597 14.2315L3.98748 11.9125C2.18301 10.827 1 9.03302 1 7C1 3.68651 4.13399 1 8 1C11.866 1 15 3.68651 15 7C15 10.3135 11.866 13 8 13Z" fill="#E57200"/>
</svg>
