<svg width="16" height="16" viewBox="0 0 16 16" fill="none" xmlns="http://www.w3.org/2000/svg">
    <path d="M2.13578 13.7914C1.95474 13.6103 1.95474 13.3168 2.13578 13.1357L13.1357 2.13578C13.3168 1.95474 13.6103 1.95474 13.7914 2.13578C13.9724 2.31683 13.9724 2.61037 13.7914 2.79141L2.79141 13.7914C2.61037 13.9724 2.31683 13.9724 2.13578 13.7914Z" fill="#807C77"/>
    <path d="M13.8642 13.7914C14.0453 13.6103 14.0453 13.3168 13.8642 13.1357L2.86426 2.13578C2.68321 1.95474 2.38968 1.95474 2.20863 2.13578C2.02758 2.31683 2.02758 2.61037 2.20863 2.79141L13.2086 13.7914C13.3896 13.9724 13.6832 13.9724 13.8642 13.7914Z" fill="#807C77"/>
</svg>
