<svg width="16" height="16" viewBox="0 0 16 16" fill="none" xmlns="http://www.w3.org/2000/svg">
<path d="M12.4407 3.24853C12.1096 2.91743 11.5728 2.91743 11.2417 3.24853L3.24834 11.2419C2.91724 11.573 2.91724 12.1098 3.24834 12.4409C3.57944 12.772 4.11625 12.772 4.44735 12.4409L12.4407 4.44754C12.7718 4.11644 12.7718 3.57963 12.4407 3.24853Z" fill="#E57200"/>
<path d="M3.24832 3.24832C2.91723 3.57942 2.91723 4.11623 3.24832 4.44733L11.2417 12.4407C11.5728 12.7718 12.1096 12.7718 12.4407 12.4407C12.7718 12.1096 12.7718 11.5728 12.4407 11.2417L4.44733 3.24832C4.11623 2.91723 3.57942 2.91723 3.24832 3.24832Z" fill="#E57200"/>
</svg>
