<svg width="24" height="24" viewBox="0 0 24 24" fill="none" xmlns="http://www.w3.org/2000/svg">
    <path d="M18.1263 14.5883C16.4582 14.5883 15.1011 15.9453 15.1011 17.6135C15.1011 19.2816 16.4582 20.6387 18.1263 20.6387C19.7947 20.6387 21.1515 19.2816 21.1515 17.6135C21.1515 15.9453 19.7944 14.5883 18.1263 14.5883ZM18.1263 19.1261C17.2921 19.1261 16.6137 18.4477 16.6137 17.6135C16.6137 16.7793 17.2921 16.1009 18.1263 16.1009C18.9605 16.1009 19.6389 16.7793 19.6389 17.6135C19.6389 18.4477 18.9605 19.1261 18.1263 19.1261Z" fill="white"/>
    <path d="M7.78987 14.5883C6.12173 14.5883 4.76465 15.9453 4.76465 17.6135C4.76465 19.2816 6.12173 20.6387 7.78987 20.6387C9.45801 20.6387 10.8151 19.2816 10.8151 17.6135C10.8151 15.9453 9.45801 14.5883 7.78987 14.5883ZM7.78987 19.1261C6.95568 19.1261 6.27726 18.4477 6.27726 17.6135C6.27726 16.7793 6.95568 16.1009 7.78987 16.1009C8.62382 16.1009 9.30248 16.7793 9.30248 17.6135C9.30248 18.4477 8.62405 19.1261 7.78987 19.1261Z" fill="white"/>
    <path d="M20.1635 5.92906C20.0349 5.67368 19.7735 5.51257 19.4876 5.51257H15.5044V7.02518H19.0212L21.0806 11.1213L22.4324 10.4416L20.1635 5.92906Z" fill="white"/>
    <path d="M15.857 16.8824H10.1343V18.395H15.857V16.8824Z" fill="white"/>
    <path d="M5.52116 16.8824H2.89935C2.4816 16.8824 2.14307 17.221 2.14307 17.6387C2.14307 18.0564 2.48164 18.3949 2.89935 18.3949H5.52121C5.93896 18.3949 6.27749 18.0564 6.27749 17.6387C6.27749 17.2209 5.93891 16.8824 5.52116 16.8824Z" fill="white"/>
    <path d="M23.8414 12.2588L22.3537 10.3428C22.2108 10.1583 21.9902 10.0504 21.7565 10.0504H16.2607V4.75628C16.2607 4.33853 15.9221 4 15.5044 4H2.89935C2.4816 4 2.14307 4.33858 2.14307 4.75628C2.14307 5.17398 2.48164 5.51256 2.89935 5.51256H14.7481V10.8067C14.7481 11.2244 15.0867 11.563 15.5044 11.563H21.3861L22.4876 12.9818V16.8823H20.3951C19.9774 16.8823 19.6388 17.2209 19.6388 17.6386C19.6388 18.0563 19.9774 18.3949 20.3951 18.3949H23.2438C23.6616 18.3949 24.0001 18.0563 24.0002 17.6386V12.7227C24.0002 12.5548 23.9442 12.3914 23.8414 12.2588Z" fill="white"/>
    <path d="M5.47065 13.0504H1.99163C1.57388 13.0504 1.23535 13.389 1.23535 13.8067C1.23535 14.2244 1.57393 14.563 1.99163 14.563H5.4706C5.88835 14.563 6.22688 14.2244 6.22688 13.8067C6.22693 13.389 5.88835 13.0504 5.47065 13.0504Z" fill="white"/>
    <path d="M7.21008 10.0756H0.756281C0.338578 10.0756 0 10.4142 0 10.832C0 11.2497 0.338578 11.5882 0.756281 11.5882H7.21008C7.62783 11.5882 7.96636 11.2497 7.96636 10.832C7.96636 10.4142 7.62783 10.0756 7.21008 10.0756Z" fill="white"/>
    <path d="M8.44543 7.10083H1.99163C1.57388 7.10083 1.23535 7.43941 1.23535 7.85711C1.23535 8.27486 1.57393 8.61339 1.99163 8.61339H8.44543C8.86318 8.61339 9.20171 8.27481 9.20171 7.85711C9.20176 7.43941 8.86318 7.10083 8.44543 7.10083Z" fill="white"/>
</svg>
