<svg width="16" height="16" viewBox="0 0 16 16" fill="none" xmlns="http://www.w3.org/2000/svg">
    <path d="M8 15.2439C7.77222 15.2439 7.55261 15.1613 7.38147 15.0113C6.73511 14.4458 6.11194 13.9143 5.56213 13.4455L5.55933 13.4431C3.94739 12.0685 2.55542 10.8815 1.58691 9.71219C0.504272 8.40497 0 7.16553 0 5.81153C0 4.49599 0.450806 3.28233 1.26929 2.39395C2.09753 1.49507 3.23401 1 4.46973 1C5.39331 1 6.23914 1.29218 6.98364 1.86835C7.35938 2.15918 7.69995 2.51512 8 2.9303C8.30017 2.51512 8.64062 2.15918 9.01648 1.86835C9.76099 1.29218 10.6068 1 11.5304 1C12.766 1 13.9026 1.49507 14.7308 2.39395C15.5493 3.28233 16 4.49599 16 5.81153C16 7.16553 15.4958 8.40497 14.4132 9.71207C13.4447 10.8815 12.0529 12.0684 10.4412 13.4428C9.89038 13.9124 9.26624 14.4447 8.61841 15.0116C8.44739 15.1613 8.22766 15.2439 8 15.2439V15.2439ZM4.46973 1.93785C3.4989 1.93785 2.60706 2.32555 1.95825 3.02961C1.2998 3.7443 0.937134 4.73223 0.937134 5.81153C0.937134 6.95031 1.36011 7.96878 2.30847 9.11379C3.2251 10.2206 4.5885 11.3832 6.16711 12.7294L6.17004 12.7318C6.72192 13.2024 7.34753 13.736 7.99866 14.3057C8.65369 13.7349 9.28027 13.2005 9.83325 12.7291C11.4117 11.3829 12.775 10.2206 13.6917 9.11379C14.6399 7.96878 15.0629 6.95031 15.0629 5.81153C15.0629 4.73223 14.7002 3.7443 14.0417 3.02961C13.3931 2.32555 12.5011 1.93785 11.5304 1.93785C10.8192 1.93785 10.1663 2.16407 9.58972 2.61015C9.07593 3.00787 8.71802 3.51063 8.50818 3.86241C8.40027 4.04331 8.21033 4.15129 8 4.15129C7.78967 4.15129 7.59973 4.04331 7.49182 3.86241C7.2821 3.51063 6.92419 3.00787 6.41028 2.61015C5.83374 2.16407 5.18079 1.93785 4.46973 1.93785V1.93785Z" fill="#807C77"/>
</svg>
