<svg width="16" height="14" viewBox="0 0 16 14" fill="none" xmlns="http://www.w3.org/2000/svg">
    <path d="M7.87817 4.37358L10.1686 6.66396L10.1795 6.54399C10.1795 5.34062 9.20152 4.36267 7.99815 4.36267L7.87817 4.37358Z"
          fill="#807C77"/>
    <path d="M7.99818 2.90845C10.005 2.90845 11.6337 4.53718 11.6337 6.54399C11.6337 7.01298 11.5392 7.46015 11.3756 7.87095L13.5024 9.99773C14.6003 9.08158 15.4656 7.89641 16 6.54399C14.7385 3.35201 11.6374 1.0907 7.99821 1.0907C6.98025 1.0907 6.00595 1.27246 5.10071 1.59966L6.67126 3.16656C7.08203 3.00661 7.5292 2.90845 7.99818 2.90845Z"
          fill="#807C77"/>
    <path d="M0.727095 0.92706L2.3849 2.58486L2.71574 2.91571C1.51602 3.85367 0.567143 5.10067 0 6.54395C1.2579 9.73594 4.36264 11.9972 7.99818 11.9972C9.1252 11.9972 10.2013 11.7791 11.1865 11.3828L11.4956 11.6919L13.6151 13.815L14.5422 12.8916L1.65415 0L0.727095 0.92706ZM4.74801 4.94433L5.87139 6.06771C5.83867 6.22405 5.81686 6.38035 5.81686 6.54395C5.81686 7.74732 6.79481 8.72527 7.99818 8.72527C8.16178 8.72527 8.31811 8.70346 8.47081 8.67074L9.59418 9.79412C9.11065 10.0341 8.57261 10.1795 7.99818 10.1795C5.99136 10.1795 4.36264 8.55077 4.36264 6.54395C4.36264 5.96955 4.50807 5.43148 4.74801 4.94433Z"
          fill="#807C77"/>
</svg>
