<svg width="24" height="24" viewBox="0 0 24 24" fill="none" xmlns="http://www.w3.org/2000/svg">
<rect x="0.5" y="0.5" width="23" height="23" rx="11.5" fill="white" stroke="#EB3700"/>
<path d="M12 12.7003C11.8208 12.7003 11.6416 12.6319 11.5049 12.4953L7.20514 8.19546C6.93162 7.92194 6.93162 7.47847 7.20514 7.20506C7.47855 6.93165 7.92193 6.93165 8.19548 7.20506L12 11.0098L15.8045 7.20519C16.078 6.93178 16.5214 6.93178 16.7948 7.20519C17.0684 7.4786 17.0684 7.92207 16.7948 8.1956L12.495 12.4954C12.3583 12.632 12.1791 12.7003 12 12.7003Z" fill="#EB3700"/>
<path d="M12 11.2997C11.8208 11.2997 11.6416 11.3681 11.5049 11.5047L7.20514 15.8045C6.93162 16.0781 6.93162 16.5215 7.20514 16.7949C7.47855 17.0684 7.92193 17.0684 8.19548 16.7949L12 12.9902L15.8045 16.7948C16.078 17.0682 16.5214 17.0682 16.7948 16.7948C17.0684 16.5214 17.0684 16.0779 16.7948 15.8044L12.495 11.5046C12.3583 11.368 12.1791 11.2997 12 11.2997Z" fill="#EB3700"/>
</svg>
