<svg width="16" height="16" viewBox="0 0 16 16" fill="none" xmlns="http://www.w3.org/2000/svg">
<path d="M13.75 8C13.75 7.58579 13.4142 7.25 13 7.25H7.6431H5.22053H3C2.58579 7.25 2.25 7.58579 2.25 8C2.25 8.41421 2.58579 8.75 3 8.75H5.22053H7.6431H13C13.4142 8.75 13.75 8.41421 13.75 8Z" fill="#E57200"/>
<path d="M8 2.25C7.58579 2.25 7.25 2.58579 7.25 3V6.26599V8.68856L7.25 13C7.25 13.4142 7.58579 13.75 8 13.75C8.41421 13.75 8.75 13.4142 8.75 13V8.68856V6.26599V3C8.75 2.58579 8.41421 2.25 8 2.25Z" fill="#E57200"/>
</svg>
