<svg width="24" height="24" viewBox="0 0 24 24" fill="none" xmlns="http://www.w3.org/2000/svg">
    <path d="M20.0775 12.2428H3.31773C2.65771 12.2428 2.12061 11.7023 2.12061 11.0382V7.82594C2.12061 7.1618 2.65771 6.62134 3.31773 6.62134H20.0775C20.7375 6.62134 21.2746 7.1618 21.2746 7.82594V11.0382C21.2746 11.7023 20.7375 12.2428 20.0775 12.2428ZM3.31773 7.4244C3.09826 7.4244 2.91869 7.60429 2.91869 7.82594V11.0382C2.91869 11.2598 3.09826 11.4397 3.31773 11.4397H20.0775C20.2969 11.4397 20.4765 11.2598 20.4765 11.0382V7.82594C20.4765 7.60429 20.2969 7.4244 20.0775 7.4244H3.31773Z" fill="white"/>
    <path fill-rule="evenodd" clip-rule="evenodd" d="M20.0766 12.3631H3.31684C2.59071 12.3631 2 11.7687 2 11.0381V7.82579C2 7.09513 2.59071 6.50073 3.31684 6.50073H20.0766C20.8027 6.50073 21.3934 7.09513 21.3934 7.82579V11.0381C21.3934 11.7687 20.8027 12.3631 20.0766 12.3631ZM3.31684 7.54472C3.16332 7.54472 3.03751 7.67083 3.03751 7.82579V11.0381C3.03751 11.193 3.16332 11.3191 3.31684 11.3191H20.0766C20.2301 11.3191 20.3559 11.193 20.3559 11.0381V7.82579C20.3559 7.67083 20.2301 7.54472 20.0766 7.54472H3.31684ZM3.31684 12.2427H20.0766C20.7366 12.2427 21.2737 11.7022 21.2737 11.0381V7.82579C21.2737 7.16166 20.7366 6.62119 20.0766 6.62119H3.31684C2.65682 6.62119 2.11971 7.16166 2.11971 7.82579V11.0381C2.11971 11.7022 2.65682 12.2427 3.31684 12.2427ZM2.91779 7.82579C2.91779 7.60415 3.09736 7.42426 3.31684 7.42426H20.0766C20.296 7.42426 20.4756 7.60415 20.4756 7.82579V11.0381C20.4756 11.2597 20.296 11.4396 20.0766 11.4396H3.31684C3.09736 11.4396 2.91779 11.2597 2.91779 11.0381V7.82579Z" fill="white"/>
    <path d="M17.6821 21.8795H5.7109C4.61035 21.8795 3.7157 20.9784 3.7157 19.8718V11.8411C3.7157 11.6195 3.89447 11.4396 4.11474 11.4396C4.33501 11.4396 4.51378 11.6195 4.51378 11.8411V19.8718C4.51378 20.5359 5.05089 21.0764 5.7109 21.0764H17.6821C18.3422 21.0764 18.8793 20.5359 18.8793 19.8718V11.8411C18.8793 11.6195 19.058 11.4396 19.2783 11.4396C19.4986 11.4396 19.6773 11.6195 19.6773 11.8411V19.8718C19.6773 20.9784 18.7827 21.8795 17.6821 21.8795Z" fill="white"/>
    <path fill-rule="evenodd" clip-rule="evenodd" d="M17.6822 21.9999H5.71099C4.54429 21.9999 3.59607 21.0449 3.59607 19.8718V11.8411C3.59607 11.5529 3.82844 11.3191 4.11482 11.3191C4.40121 11.3191 4.63358 11.5529 4.63358 11.8411V19.8718C4.63358 20.4694 5.11709 20.9559 5.71099 20.9559H17.6822C18.2761 20.9559 18.7596 20.4694 18.7596 19.8718V11.8411C18.7596 11.5529 18.992 11.3191 19.2784 11.3191C19.5648 11.3191 19.7971 11.5529 19.7971 11.8411V19.8718C19.7971 21.0449 18.8489 21.9999 17.6822 21.9999ZM5.71099 21.8795H17.6822C18.7828 21.8795 19.6774 20.9784 19.6774 19.8718V11.8411C19.6774 11.6194 19.4987 11.4396 19.2784 11.4396C19.0581 11.4396 18.8793 11.6194 18.8793 11.8411V19.8718C18.8793 20.5359 18.3422 21.0764 17.6822 21.0764H5.71099C5.05097 21.0764 4.51386 20.5359 4.51386 19.8718V11.8411C4.51386 11.6194 4.33509 11.4396 4.11482 11.4396C3.89455 11.4396 3.71578 11.6194 3.71578 11.8411V19.8718C3.71578 20.9784 4.61043 21.8795 5.71099 21.8795Z" fill="white"/>
    <path d="M11.6969 21.8795C11.4766 21.8795 11.2979 21.6996 11.2979 21.4779V11.8411C11.2979 11.6195 11.4766 11.4396 11.6969 11.4396C11.9172 11.4396 12.0959 11.6195 12.0959 11.8411V21.4779C12.0959 21.6996 11.9172 21.8795 11.6969 21.8795Z" fill="white"/>
    <path fill-rule="evenodd" clip-rule="evenodd" d="M11.6966 21.9999C11.4102 21.9999 11.1779 21.7661 11.1779 21.4779V11.8411C11.1779 11.5529 11.4102 11.3191 11.6966 11.3191C11.983 11.3191 12.2154 11.5529 12.2154 11.8411V21.4779C12.2154 21.7661 11.983 21.9999 11.6966 21.9999ZM11.2976 21.4779C11.2976 21.6996 11.4763 21.8795 11.6966 21.8795C11.9169 21.8795 12.0956 21.6996 12.0956 21.4779V11.8411C12.0956 11.6194 11.9169 11.4396 11.6966 11.4396C11.4763 11.4396 11.2976 11.6194 11.2976 11.8411V21.4779Z" fill="white"/>
    <path fill-rule="evenodd" clip-rule="evenodd" d="M11.3462 5.96187C11.3884 5.79999 12.4118 2 15.3997 2C16.6997 2 17.7572 3.06412 17.7571 4.37216C17.7571 5.68015 16.7089 6.74428 15.4204 6.74428H11.9463C11.754 6.74428 11.5727 6.65459 11.4552 6.50143C11.3377 6.34827 11.2974 6.14892 11.3462 5.96187ZM12.4771 5.69671C12.5044 5.59217 13.1653 3.138 15.095 3.138C15.9345 3.138 16.6175 3.82525 16.6175 4.67002C16.6175 5.51477 15.9405 6.20202 15.1084 6.20202H12.8647C12.7405 6.20202 12.6234 6.1441 12.5475 6.04518C12.4716 5.94626 12.4456 5.81751 12.4771 5.69671Z" fill="white"/>
    <path fill-rule="evenodd" clip-rule="evenodd" d="M12.0472 5.96187C12.005 5.79999 10.9816 2 7.9937 2C6.69378 2 5.63626 3.06412 5.6363 4.37216C5.6363 5.68015 6.68452 6.74428 7.97302 6.74428H11.4471C11.6394 6.74428 11.8207 6.65459 11.9382 6.50143C12.0557 6.34827 12.096 6.14892 12.0472 5.96187ZM10.9163 5.69671C10.889 5.59217 10.2281 3.138 8.29838 3.138C7.45885 3.138 6.77586 3.82525 6.77589 4.67002C6.77589 5.51477 7.45287 6.20202 8.28502 6.20202H10.5287C10.6529 6.20202 10.77 6.1441 10.8459 6.04518C10.9218 5.94626 10.9478 5.81751 10.9163 5.69671Z" fill="white"/>
</svg>
