<svg viewBox="0 0 24 24" fill="none" xmlns="http://www.w3.org/2000/svg">
<rect x="0.5" y="0.5" width="23" height="23" rx="11.5" fill="white" stroke="#DCD9D2"/>
<path d="M11.0863 13.8866C11.0962 13.2996 11.1628 12.836 11.2861 12.4957C11.4094 12.1554 11.6609 11.7781 12.0407 11.3637L13.0099 10.365C13.4242 9.89642 13.6313 9.39334 13.6313 8.85573C13.6313 8.33785 13.4957 7.93342 13.2244 7.64242C12.9531 7.34649 12.5586 7.19852 12.0407 7.19852C11.5376 7.19852 11.1332 7.33169 10.8274 7.59803C10.5216 7.86437 10.3687 8.22195 10.3687 8.67078H9C9.00986 7.87176 9.29346 7.22811 9.8508 6.73983C10.4131 6.24661 11.143 6 12.0407 6C12.9729 6 13.6979 6.25154 14.2158 6.75462C14.7386 7.25277 15 7.93835 15 8.81134C15 9.67448 14.6005 10.5253 13.8015 11.3637L12.9951 12.1628C12.635 12.5623 12.455 13.1369 12.455 13.8866H11.0863ZM11.0271 16.2318C11.0271 16.0099 11.0937 15.8249 11.2269 15.6769C11.365 15.524 11.5672 15.4476 11.8335 15.4476C12.0999 15.4476 12.3021 15.524 12.4402 15.6769C12.5783 15.8249 12.6473 16.0099 12.6473 16.2318C12.6473 16.4538 12.5783 16.6387 12.4402 16.7867C12.3021 16.9297 12.0999 17.0012 11.8335 17.0012C11.5672 17.0012 11.365 16.9297 11.2269 16.7867C11.0937 16.6387 11.0271 16.4538 11.0271 16.2318Z" fill="#807C77"/>
</svg>
