<svg width="64" height="64" viewBox="0 0 64 64" fill="none" xmlns="http://www.w3.org/2000/svg">
<path d="M0 20C0 8.95431 8.95431 0 20 0H64V44C64 55.0457 55.0457 64 44 64H0V20Z" fill="#009E55"/>
<path d="M43.9136 38.6484L42.5197 34.5917C43.1916 33.2182 43.5467 31.6906 43.5491 30.1536C43.5532 27.4811 42.5192 24.9542 40.6376 23.0384C38.7555 21.1223 36.2476 20.0436 33.5757 20.0013C30.8052 19.9575 28.201 21.0114 26.2432 22.9692C24.3553 24.857 23.3082 27.3457 23.2751 30.0052C21.4144 31.4061 20.3162 33.5903 20.3198 35.9232C20.3215 37.0149 20.5672 38.1001 21.0329 39.0814L20.0727 41.8756C19.9077 42.3559 20.0282 42.8774 20.3874 43.2366C20.6401 43.4894 20.9734 43.624 21.3161 43.624C21.4603 43.624 21.6061 43.6002 21.7484 43.5513L24.5426 42.5911C25.5239 43.0567 26.6091 43.3025 27.7008 43.3042C27.7048 43.3042 27.7085 43.3042 27.7125 43.3042C30.0801 43.3041 32.2809 42.1775 33.6767 40.2713C35.1292 40.233 36.5664 39.8814 37.8656 39.2458L41.9224 40.6398C42.0914 40.6979 42.2647 40.7262 42.4361 40.7262C42.8433 40.7262 43.2393 40.5663 43.5397 40.2658C43.9665 39.839 44.1097 39.2193 43.9136 38.6484ZM27.7124 41.8756C27.7093 41.8756 27.7061 41.8756 27.703 41.8756C26.7368 41.8742 25.7772 41.6359 24.9282 41.1868C24.7537 41.0945 24.5487 41.0785 24.3621 41.1426L21.4969 42.1272L22.4814 39.2621C22.5456 39.0753 22.5296 38.8704 22.4373 38.6959C21.9881 37.8469 21.7499 36.8874 21.7484 35.921C21.746 34.3667 22.3507 32.8935 23.408 31.7903C23.7534 33.8957 24.7568 35.8359 26.3123 37.3637C27.8562 38.8801 29.7969 39.8456 31.8909 40.1613C30.7852 41.2511 29.2948 41.8756 27.7124 41.8756ZM42.5295 39.2556C42.4888 39.2963 42.4407 39.3073 42.3865 39.2887L38.0436 37.7964C37.9682 37.7704 37.8897 37.7576 37.8115 37.7576C37.6962 37.7576 37.5814 37.7855 37.4775 37.8405C36.2375 38.4965 34.8363 38.8444 33.4253 38.8466C33.4206 38.8466 33.4164 38.8466 33.4118 38.8466C28.6838 38.8466 24.7785 35.0059 24.7036 30.279C24.6659 27.8985 25.5714 25.6612 27.2533 23.9793C28.9352 22.2973 31.1729 21.3921 33.5531 21.4296C38.2845 21.5047 42.1278 25.4172 42.1205 30.1514C42.1183 31.5624 41.7704 32.9636 41.1145 34.2035C41.0222 34.378 41.0062 34.583 41.0704 34.7697L42.5626 39.1126C42.5812 39.1669 42.5701 39.2151 42.5295 39.2556Z" fill="white"/>
<path d="M37.6668 26.3516H29.1562C28.7617 26.3516 28.4419 26.6714 28.4419 27.0658C28.4419 27.4603 28.7617 27.7801 29.1562 27.7801H37.6668C38.0613 27.7801 38.3811 27.4603 38.3811 27.0658C38.3811 26.6714 38.0613 26.3516 37.6668 26.3516Z" fill="white"/>
<path d="M37.6668 29.2893H29.1562C28.7617 29.2893 28.4419 29.6091 28.4419 30.0036C28.4419 30.398 28.7617 30.7179 29.1562 30.7179H37.6668C38.0613 30.7179 38.3811 30.398 38.3811 30.0036C38.3811 29.6091 38.0613 29.2893 37.6668 29.2893Z" fill="white"/>
<path d="M34.3909 32.2268H29.1562C28.7617 32.2268 28.4419 32.5466 28.4419 32.9411C28.4419 33.3356 28.7617 33.6554 29.1562 33.6554H34.3908C34.7853 33.6554 35.1051 33.3355 35.1051 32.9411C35.1051 32.5466 34.7854 32.2268 34.3909 32.2268Z" fill="white"/>
</svg>
