<svg width="16" height="16" viewBox="0 0 16 16" fill="none" xmlns="http://www.w3.org/2000/svg">
    <path d="M13.4276 5.06494H12.4425C12.1704 5.06494 11.9499 5.28547 11.9499 5.55751C11.9499 5.82956 12.1704 6.05009 12.4425 6.05009H12.935V14.9163H3.08366V6.05009H3.57623C3.84827 6.05009 4.0688 5.82956 4.0688 5.55751C4.0688 5.28547 3.84827 5.06494 3.57623 5.06494H2.59108C2.31881 5.06494 2.09851 5.28525 2.09851 5.55751V15.4089C2.09851 15.6811 2.31881 15.9014 2.59108 15.9014H13.4276C13.6998 15.9014 13.9201 15.6811 13.9201 15.4089V5.55751C13.9201 5.28525 13.6998 5.06494 13.4276 5.06494Z" fill="#E57200"/>
    <path fill-rule="evenodd" clip-rule="evenodd" d="M12.4425 4.96655H13.4276C13.7543 4.96655 14.0187 5.23096 14.0187 5.55764V15.409C14.0187 15.7357 13.7543 16.0001 13.4276 16.0001H2.59109C2.26441 16.0001 2 15.7357 2 15.409V5.55764C2 5.23096 2.26441 4.96655 2.59109 4.96655H3.57623C3.90268 4.96655 4.16732 5.23119 4.16732 5.55764C4.16732 5.88409 3.90268 6.14873 3.57623 6.14873H3.18217V14.8179H12.8365V6.14873H12.4425C12.116 6.14873 11.8514 5.88409 11.8514 5.55764C11.8514 5.23119 12.116 4.96655 12.4425 4.96655ZM12.4425 5.06507H13.4276C13.6998 5.06507 13.9202 5.28537 13.9202 5.55764V15.409C13.9202 15.6813 13.6998 15.9016 13.4276 15.9016H2.59109C2.31882 15.9016 2.09851 15.6813 2.09851 15.409V5.55764C2.09851 5.28537 2.31882 5.06507 2.59109 5.06507H3.57623C3.84827 5.06507 4.06881 5.2856 4.06881 5.55764C4.06881 5.82968 3.84827 6.05021 3.57623 6.05021H3.08366V14.9164H12.935V6.05021H12.4425C12.1704 6.05021 11.9499 5.82968 11.9499 5.55764C11.9499 5.2856 12.1704 5.06507 12.4425 5.06507Z" fill="#E57200"/>
    <path d="M7.51676 2.02501V8.51306C7.51676 8.7851 7.73729 9.00563 8.00933 9.00563C8.28137 9.00563 8.5019 8.7851 8.5019 8.51306V2.02501L10.2682 3.79133C10.4606 3.98367 10.7724 3.98367 10.9647 3.79133C11.1571 3.59899 11.1571 3.28715 10.9647 3.09481L8.08004 0.210115C8.04099 0.171063 7.97767 0.171063 7.93862 0.210115L5.05392 3.09481C4.86158 3.28715 4.86158 3.59899 5.05392 3.79133C5.24626 3.98367 5.5581 3.98367 5.75044 3.79133L7.51676 2.02501Z" fill="#E57200"/>
    <path fill-rule="evenodd" clip-rule="evenodd" d="M10.9647 3.09473C11.1571 3.28707 11.1571 3.59891 10.9647 3.79125C10.7724 3.98358 10.4606 3.98359 10.2682 3.79125L8.50191 2.02493V8.51297C8.50191 8.78502 8.28137 9.00555 8.00933 9.00555C7.73729 9.00555 7.51676 8.78502 7.51676 8.51297V2.02493L5.75044 3.79125C5.5581 3.98358 5.24626 3.98358 5.05392 3.79125C4.86159 3.59891 4.86159 3.28707 5.05392 3.09473L7.86791 0.280741C7.94602 0.202636 8.07265 0.202636 8.15076 0.28074L10.9647 3.09473ZM7.41825 2.26276L5.8201 3.86091C5.58929 4.09172 5.21507 4.09172 4.98426 3.86091C4.75345 3.6301 4.75345 3.25588 4.98426 3.02507L7.86791 0.141421C7.94602 0.0633165 8.07265 0.0633164 8.15075 0.141421L11.0344 3.02507C11.2652 3.25588 11.2652 3.6301 11.0344 3.86091C10.8036 4.09172 10.4294 4.09172 10.1986 3.86091L8.60042 2.26276V8.51297C8.60042 8.83942 8.33578 9.10406 8.00933 9.10406C7.68289 9.10406 7.41825 8.83942 7.41825 8.51297V2.26276Z" fill="#E57200"/>
</svg>
