<svg width="16" height="11" viewBox="0 0 16 11" fill="none" xmlns="http://www.w3.org/2000/svg">
    <path d="M8 0C4.47095 0 1.42938 2.08035 0.0321837 5.08244C-0.0107279 5.17342 -0.0107279 5.27984 0.0321837 5.37253C1.42938 8.3746 4.47097 10.455 8 10.455C11.529 10.455 14.5706 8.37462 15.9678 5.37253C16.0107 5.28155 16.0107 5.17513 15.9678 5.08244C14.5706 2.08035 11.529 0 8 0ZM8 8.83465C6.00719 8.83465 4.39371 7.21944 4.39371 5.22834C4.39371 3.23553 6.0089 1.62206 8 1.62206C9.99281 1.62206 11.6063 3.23725 11.6063 5.22834C11.6063 7.21944 9.9911 8.83465 8 8.83465Z"
          fill="#DCD9D2"/>
    <path d="M8 0C4.47095 0 1.42938 2.08035 0.0321837 5.08244C-0.0107279 5.17342 -0.0107279 5.27984 0.0321837 5.37253C1.42938 8.3746 4.47097 10.455 8 10.455C11.529 10.455 14.5706 8.37462 15.9678 5.37253C16.0107 5.28155 16.0107 5.17513 15.9678 5.08244C14.5706 2.08035 11.529 0 8 0ZM8 8.83465C6.00719 8.83465 4.39371 7.21944 4.39371 5.22834C4.39371 3.23553 6.0089 1.62206 8 1.62206C9.99281 1.62206 11.6063 3.23725 11.6063 5.22834C11.6063 7.21944 9.9911 8.83465 8 8.83465Z"
          fill="#807C77"/>
    <path d="M7.99999 7.53525C9.27501 7.53525 10.3086 6.50164 10.3086 5.22661C10.3086 3.95158 9.27501 2.91797 7.99999 2.91797C6.72496 2.91797 5.69135 3.95158 5.69135 5.22661C5.69135 6.50164 6.72496 7.53525 7.99999 7.53525Z"
          fill="#DCD9D2"/>
    <path d="M7.99999 7.53525C9.27501 7.53525 10.3086 6.50164 10.3086 5.22661C10.3086 3.95158 9.27501 2.91797 7.99999 2.91797C6.72496 2.91797 5.69135 3.95158 5.69135 5.22661C5.69135 6.50164 6.72496 7.53525 7.99999 7.53525Z"
          fill="#807C77"/>
</svg>
