<svg width="24" height="24" viewBox="0 0 24 24" fill="none" xmlns="http://www.w3.org/2000/svg">
    <path d="M11.9999 14.9335C11.6548 14.9335 11.375 14.6537 11.375 14.3086V9.93424C11.375 9.58913 11.6548 9.30933 11.9999 9.30933C12.3451 9.30933 12.6248 9.58913 12.6248 9.93424V14.3086C12.6248 14.6538 12.3451 14.9335 11.9999 14.9335Z" fill="white"/>
    <path d="M21.7354 18.071L13.9556 5.10485C13.0729 3.63314 10.9289 3.63029 10.0445 5.10485L2.26464 18.071C1.52892 19.2972 2.41407 20.8702 3.84957 20.8702H20.1504C21.5862 20.8702 22.471 19.297 21.7354 18.071ZM20.1504 19.6204H3.84961C3.38397 19.6204 3.09847 19.1099 3.3364 18.7139L11.1162 5.74773C11.5153 5.08247 12.4843 5.08169 12.8839 5.74773L20.6637 18.7139C20.9013 19.1095 20.6165 19.6204 20.1504 19.6204Z" fill="white"/>
    <path d="M11.9999 17.4333C12.5176 17.4333 12.9372 17.0136 12.9372 16.4959C12.9372 15.9782 12.5176 15.5585 11.9999 15.5585C11.4822 15.5585 11.0625 15.9782 11.0625 16.4959C11.0625 17.0136 11.4822 17.4333 11.9999 17.4333Z" fill="white"/>
</svg>
