<svg width="24" height="25" viewBox="0 0 24 25" fill="none" xmlns="http://www.w3.org/2000/svg">
<path d="M5.31891 15.5035L4.4835 18.6222L1.43011 18.6868C0.517594 16.9943 0 15.0578 0 13C0 11.0101 0.483938 9.13362 1.34175 7.48132H1.34241L4.06078 7.9797L5.25159 10.6818C5.00236 11.4084 4.86652 12.1884 4.86652 13C4.86661 13.8809 5.02617 14.7249 5.31891 15.5035Z" fill="#FBBB00"/>
<path d="M23.7903 10.7582C23.9282 11.4841 24 12.2338 24 13C24 13.8591 23.9097 14.6971 23.7376 15.5055C23.1535 18.2563 21.6271 20.6582 19.5126 22.358L19.5119 22.3574L16.088 22.1827L15.6034 19.1576C17.0065 18.3347 18.103 17.047 18.6805 15.5055H12.2638V10.7582H18.7742H23.7903Z" fill="#518EF8"/>
<path d="M19.5119 22.3574L19.5125 22.358C17.4561 24.011 14.8437 25 12 25C7.43011 25 3.45694 22.4457 1.43011 18.6868L5.31891 15.5035C6.3323 18.2081 8.94132 20.1334 12 20.1334C13.3147 20.1334 14.5464 19.778 15.6033 19.1576L19.5119 22.3574Z" fill="#28B446"/>
<path d="M19.6595 3.76262L15.7721 6.94525C14.6782 6.26153 13.3852 5.86656 12 5.86656C8.87206 5.86656 6.21425 7.88017 5.25163 10.6818L1.34239 7.48131H1.34174C3.33889 3.63077 7.36217 1 12 1C14.9116 1 17.5813 2.03716 19.6595 3.76262Z" fill="#F14336"/>
</svg>
