<svg width="24" height="24" viewBox="0 0 24 24" fill="none" xmlns="http://www.w3.org/2000/svg">
    <circle cx="12" cy="12" r="12" fill="url(#paint0_linear)"/>
    <path d="M12.1575 20C12.1045 20 12.0515 20 11.9982 19.9998C10.744 20.0028 9.58522 19.9709 8.45826 19.9023C7.42506 19.8395 6.48194 19.4824 5.73072 18.8699C5.00586 18.2788 4.51087 17.4796 4.25952 16.4947C4.04077 15.6373 4.02917 14.7956 4.01807 13.9816C4.01001 13.3974 4.00171 12.7053 4 12.0014C4.00171 11.2947 4.01001 10.6025 4.01807 10.0184C4.02917 9.20444 4.04077 8.36276 4.25952 7.50521C4.51087 6.52035 5.00586 5.72115 5.73072 5.13009C6.48194 4.51753 7.42506 4.16048 8.45839 4.09761C9.58534 4.02913 10.7444 3.99715 12.0012 4.0002C13.2558 3.99751 14.4142 4.02913 15.5412 4.09761C16.5744 4.16048 17.5175 4.51753 18.2687 5.13009C18.9937 5.72115 19.4886 6.52035 19.7399 7.50521C19.9587 8.36264 19.9703 9.20444 19.9814 10.0184C19.9894 10.6025 19.9978 11.2947 19.9994 11.9985V12.0014C19.9978 12.7053 19.9894 13.3974 19.9814 13.9816C19.9703 14.7955 19.9588 15.6372 19.7399 16.4947C19.4886 17.4796 18.9937 18.2788 18.2687 18.8699C17.5175 19.4824 16.5744 19.8395 15.5412 19.9023C14.4619 19.968 13.3533 20 12.1575 20ZM11.9982 18.7498C13.232 18.7527 14.3648 18.7216 15.4652 18.6547C16.2465 18.6072 16.9239 18.3536 17.4788 17.9011C17.9917 17.4828 18.345 16.9056 18.5287 16.1857C18.7109 15.4719 18.7214 14.7056 18.7315 13.9645C18.7394 13.3843 18.7477 12.697 18.7494 12C18.7477 11.3028 18.7394 10.6157 18.7315 10.0355C18.7214 9.2944 18.7109 8.52804 18.5287 7.81418C18.345 7.0942 17.9917 6.51705 17.4788 6.09872C16.9239 5.64632 16.2465 5.39278 15.4652 5.3453C14.3648 5.27828 13.232 5.2474 12.0011 5.25008C10.7676 5.24715 9.63466 5.27828 8.53419 5.3453C7.75294 5.39278 7.07557 5.64632 6.52064 6.09872C6.0077 6.51705 5.65442 7.0942 5.47071 7.81418C5.28858 8.52804 5.27808 9.29428 5.26795 10.0355C5.26001 10.6162 5.25171 11.3038 5.25 12.0014C5.25171 12.696 5.26001 13.3838 5.26795 13.9645C5.27808 14.7056 5.28858 15.4719 5.47071 16.1857C5.65442 16.9056 6.0077 17.4828 6.52064 17.9011C7.07557 18.3535 7.75294 18.6071 8.53419 18.6545C9.63466 18.7216 10.7678 18.7528 11.9982 18.7498ZM11.9684 15.9062C9.81459 15.9062 8.06214 14.1539 8.06214 12C8.06214 9.84604 9.81459 8.09372 11.9684 8.09372C14.1223 8.09372 15.8747 9.84604 15.8747 12C15.8747 14.1539 14.1223 15.9062 11.9684 15.9062ZM11.9684 9.34372C10.5038 9.34372 9.31215 10.5354 9.31215 12C9.31215 13.4646 10.5038 14.6562 11.9684 14.6562C13.4331 14.6562 14.6247 13.4646 14.6247 12C14.6247 10.5354 13.4331 9.34372 11.9684 9.34372ZM16.3122 6.84371C15.7945 6.84371 15.3747 7.26339 15.3747 7.78122C15.3747 8.29904 15.7945 8.71872 16.3122 8.71872C16.83 8.71872 17.2497 8.29904 17.2497 7.78122C17.2497 7.26339 16.83 6.84371 16.3122 6.84371Z"
          fill="white"/>
    <defs>
        <linearGradient id="paint0_linear" x1="1.6114" y1="22.4364" x2="23.849" y2="3.18621" gradientUnits="userSpaceOnUse">
            <stop stop-color="#FFDD55"/>
            <stop offset="0.5" stop-color="#FF543E"/>
            <stop offset="1" stop-color="#C837AB"/>
        </linearGradient>
    </defs>
</svg>
