<svg width="16" height="16" viewBox="0 0 16 16" fill="none" xmlns="http://www.w3.org/2000/svg">
<path d="M3.88177 16C2.85965 16 1.8944 15.595 1.14968 14.8503C0.369894 14.0705 -0.0374195 13.0488 0.00270553 11.9733C0.0441743 10.8626 0.545956 9.79562 1.45383 8.88774L3.08846 7.24646C3.33202 7.00186 3.72774 7.00105 3.97234 7.24465C4.2169 7.48821 4.21774 7.88396 3.97415 8.12852L2.33865 9.77074C1.0133 11.0961 0.888238 12.8211 2.03361 13.9664C3.17902 15.1119 4.90399 14.9868 6.22837 13.6623L8.47484 11.4158C9.15575 10.735 9.53125 9.95749 9.56072 9.16755C9.58775 8.44349 9.31012 7.75221 8.779 7.22108C8.60103 7.04315 8.40412 6.89215 8.19372 6.7723C7.89378 6.60146 7.78912 6.2198 7.95997 5.91989C8.13084 5.61996 8.5125 5.51533 8.81237 5.68614C9.11981 5.86127 9.40597 6.08033 9.66291 6.33724C10.4427 7.11702 10.85 8.13874 10.8099 9.21421C10.7684 10.3249 10.2666 11.3919 9.35875 12.2998L7.11228 14.5462C6.20437 15.4541 5.13743 15.9559 4.02671 15.9974C3.97834 15.9991 3.92993 16 3.88177 16ZM8.04015 10.0801C8.211 9.78018 8.10631 9.39852 7.8064 9.22771C7.596 9.10787 7.39906 8.95687 7.22112 8.77896C6.07574 7.63355 6.20081 5.90858 7.52525 4.58414L9.77172 2.3377C11.0962 1.01329 12.8211 0.888199 13.9665 2.03358C15.1119 3.17895 14.9868 4.90392 13.6614 6.22927L12.0259 7.87149C11.7823 8.11605 11.7832 8.5118 12.0278 8.75537C12.2723 8.99896 12.668 8.99809 12.9116 8.75355L14.5463 7.11224C15.4541 6.20436 15.9559 5.13739 15.9974 4.0267C16.0375 2.95123 15.6302 1.92948 14.8504 1.1497C14.0706 0.369886 13.0483 -0.0373647 11.9734 0.00269783C10.8627 0.0441666 9.79572 0.545949 8.88787 1.45382L6.64137 3.70027C5.73349 4.60814 5.23174 5.67511 5.19024 6.7858C5.15012 7.86127 5.55743 8.88302 6.33721 9.66284C6.59412 9.91971 6.88028 10.1387 7.18775 10.3139C7.28537 10.3695 7.39162 10.3959 7.4965 10.3959C7.71378 10.3959 7.9249 10.2824 8.04015 10.0801Z" fill="#807C77"/>
</svg>
