<svg width="16" height="16" viewBox="0 0 16 16" fill="none" xmlns="http://www.w3.org/2000/svg">
<path d="M15.504 9.26264C15.9809 5.24818 15.2749 2.71375 14.0013 1.56742L14.002 1.56676C11.9465 -0.39085 5.0046 -0.680594 2.54543 1.65468C1.44108 2.797 1.05209 4.47353 1.00946 6.54903C0.966827 8.6252 0.916205 12.5144 4.54034 13.5695H4.54367L4.54034 15.1807C4.54034 15.1807 4.5157 15.8335 4.93266 15.9647C5.40957 16.1193 5.62538 15.8162 7.10874 14.0444C9.58922 14.2596 11.4942 13.7667 11.7107 13.6947C12.2116 13.5269 15.0457 13.1519 15.504 9.26264ZM7.35319 12.9108C7.35319 12.9108 5.78325 14.8684 5.29501 15.3766C5.13515 15.5418 4.95997 15.5264 4.96264 15.1987C4.96264 14.9836 4.97463 12.5238 4.97463 12.5238C1.902 11.6432 2.08318 8.33146 2.11648 6.59899C2.14978 4.86585 2.46684 3.44643 3.40201 2.49061C5.55944 0.467726 11.6454 0.919994 13.196 2.37738C15.0917 4.05789 14.417 8.80571 14.421 8.96756C14.0313 12.214 11.7347 12.4199 11.3124 12.5604C11.1319 12.6203 9.45667 13.0513 7.35319 12.9108Z" fill="#807C77"/>
<path d="M8.22163 2.87091C7.96519 2.87091 7.96519 3.27056 8.22163 3.27389C10.2112 3.28921 11.8498 4.67599 11.8677 7.21974C11.8677 7.48817 12.2607 7.48484 12.2574 7.21641H12.2567C12.2354 4.4755 10.4463 2.88623 8.22163 2.87091Z" fill="#807C77"/>
<path d="M10.838 6.79813C10.832 7.06323 11.2244 7.07588 11.2277 6.80745C11.2603 5.29612 10.3285 4.05122 8.57736 3.92C8.32092 3.90135 8.29428 4.30433 8.55005 4.32298C10.0687 4.43821 10.8687 5.47463 10.838 6.79813Z" fill="#807C77"/>
<path d="M10.4195 8.51732C10.0904 8.32682 9.75541 8.44538 9.61687 8.63255L9.32712 9.00755C9.17992 9.19805 8.90483 9.17274 8.90483 9.17274C6.89726 8.64187 6.3604 6.54106 6.3604 6.54106C6.3604 6.54106 6.33576 6.25664 6.5196 6.10411L6.88194 5.80437C7.06312 5.6605 7.17768 5.31414 6.99318 4.97377C6.50028 4.08323 6.16924 3.77616 6.00072 3.54037C5.82354 3.31857 5.55711 3.26861 5.28002 3.41848H5.27403C4.69787 3.75551 4.06709 4.38629 4.26892 5.03572C4.61328 5.72045 5.24605 7.90319 7.26294 9.5524C8.21077 10.3324 9.71078 11.1317 10.3476 11.3162L10.3535 11.3255C10.981 11.5347 11.5911 10.8792 11.9168 10.2858V10.2811C12.0614 9.99401 12.0134 9.72225 11.8023 9.54441C11.4279 9.1794 10.8631 8.77642 10.4195 8.51732Z" fill="#807C77"/>
<path d="M8.85297 5.4067C9.49307 5.444 9.80346 5.77837 9.83677 6.4651C9.84875 6.73353 10.2384 6.71488 10.2264 6.44645C10.1838 5.54991 9.71621 5.05035 8.87428 5.00372C8.61784 4.9884 8.59386 5.39138 8.85297 5.4067Z" fill="#807C77"/>
</svg>
