<svg width="16" height="16" viewBox="0 0 16 16" fill="none" xmlns="http://www.w3.org/2000/svg">
<path d="M14.5938 3H1.40625C0.630844 3 0 3.63084 0 4.40625V12.5557C0 13.3311 0.630844 13.9619 1.40625 13.9619H14.5938C15.3692 13.9619 16 13.3311 16 12.5557V4.40625C16 3.63084 15.3692 3 14.5938 3ZM14.4102 3.9375L14.2225 4.09378L8.55794 8.81069C8.23462 9.07987 7.76531 9.07987 7.44206 8.81069L1.77747 4.09378L1.58978 3.9375H14.4102ZM0.9375 4.61431L5.55288 8.45753L0.9375 11.5292V4.61431ZM14.5938 13.0244H1.40625C1.17975 13.0244 0.990313 12.8629 0.946906 12.6491L6.30456 9.08344L6.84219 9.53113C7.17762 9.81044 7.58884 9.95009 8.00003 9.95009C8.41122 9.95009 8.82241 9.81044 9.15788 9.53113L9.6955 9.08344L15.0531 12.6491C15.0097 12.863 14.8202 13.0244 14.5938 13.0244ZM15.0625 11.5292L10.4471 8.45756L15.0625 4.61431V11.5292Z" fill="#807C77"/>
</svg>
