<svg width="24" height="24" viewBox="0 0 24 24" fill="none" xmlns="http://www.w3.org/2000/svg">
<path d="M20.5917 7.53387C20.5917 7.53387 16.9099 5.01829 13.2281 6.81518C9.546 8.61203 3.68158 12.1367 0 9.69028C0 9.69028 5.04495 18.687 15.4763 15.5222L18.2041 12.6362L20.9319 10.699L21.8857 8.10996L20.5917 7.53387Z" fill="#C72128"/>
<path d="M18.6702 5.15636C18.6702 6.35241 17.7567 7.31262 16.6285 7.31262C15.4996 7.31262 14.5812 6.35241 14.5812 5.15636C14.5812 3.96643 15.4996 3 16.6285 3C17.7567 3 18.6702 3.96643 18.6702 5.15636Z" fill="#18191B"/>
<path d="M24 3.22144C24 3.22144 22.8396 6.45594 20.5917 7.53396C20.5917 7.53396 20.9319 9.11386 19.7716 10.4091C19.7716 10.4091 16.7035 6.09642 11.1141 11.5579C11.1141 11.5579 15.7497 9.55 15.6108 12.2769C15.4763 15.0118 10.5676 18.8957 7.63513 19.3248C7.63513 19.3248 21.8858 19.3248 24 3.22144Z" fill="#18191B"/>
<path d="M10.5262 13.2964H10.5267C10.5517 13.2964 10.5764 13.2832 10.5974 13.2667L10.6015 13.2655C10.6032 13.2653 10.6057 13.2652 10.6073 13.2649L10.6682 13.2002L12.177 11.8243C12.1761 11.8125 12.1688 11.8115 12.1662 11.8115H8.8803C8.8762 11.8115 8.87305 11.8118 8.86851 11.8133L10.45 13.265C10.4682 13.2824 10.4967 13.2964 10.5262 13.2964ZM8.86206 12.0117V14.0564L9.99452 13.0436L8.86206 12.0117ZM11.0524 13.0468L12.1831 14.0664V12.016L11.0524 13.0468ZM10.6924 13.3841C10.649 13.4204 10.5904 13.4405 10.5265 13.4405C10.4665 13.4405 10.4067 13.4205 10.3608 13.3842L10.1026 13.1454L8.86206 14.2576V14.2587C8.86206 14.2739 8.87031 14.2764 8.8813 14.2764H12.1662C12.1754 14.2764 12.1831 14.2739 12.1831 14.2587V14.2577L10.9433 13.1477L10.6924 13.3841Z" fill="white"/>
</svg>
