<svg width="24" height="24" viewBox="0 0 24 24" fill="none" xmlns="http://www.w3.org/2000/svg">
<path d="M12.2119 0C12.4221 0.100176 12.5884 0.254955 12.7519 0.419693C14.0693 1.74755 15.3908 3.07133 16.7111 4.39641C16.7569 4.44233 16.805 4.48608 16.8474 4.53502C16.9388 4.64062 17.0446 4.75227 16.9709 4.90426C16.9032 5.04382 16.757 5.02911 16.6294 5.02958C16.068 5.03137 15.5065 5.02779 14.9451 5.03137C14.505 5.0342 14.3009 5.23532 14.2989 5.68C14.2944 6.69552 14.2983 7.71114 14.2968 8.72676C14.296 9.26705 14.1003 9.47911 13.5691 9.48298C12.5568 9.49043 11.5444 9.48882 10.5319 9.48383C10.0486 9.48147 9.84303 9.26818 9.8419 8.78192C9.83955 7.7664 9.84219 6.75078 9.84068 5.73516C9.83992 5.2241 9.647 5.03212 9.13612 5.0308C8.55632 5.02929 7.97651 5.03127 7.3967 5.02967C7.25989 5.02929 7.0977 5.04938 7.03273 4.89531C6.96456 4.7336 7.08035 4.61394 7.18653 4.50748C8.61214 3.0784 10.0377 1.6491 11.4664 0.22301C11.5544 0.135177 11.6681 0.073727 11.7698 0C11.9172 0 12.0646 0 12.2119 0Z" fill="#FF392E"/>
<path d="M11.8247 24C11.6408 23.8776 11.4803 23.7289 11.3252 23.5707C9.97685 22.1949 8.62526 20.8224 7.27537 19.4481C7.20012 19.3716 7.07952 19.304 7.1311 19.1726C7.18324 19.0396 7.31978 19.0347 7.4385 19.0338C8.00906 19.0297 8.57972 19.0336 9.15038 19.0303C9.63221 19.0276 9.83787 18.822 9.83947 18.3319C9.84305 17.2417 9.83994 16.1515 9.84117 15.0613C9.84173 14.5218 10.0406 14.3226 10.5782 14.322C11.563 14.321 12.5477 14.3203 13.5326 14.3223C14.0955 14.3235 14.2959 14.5284 14.2965 15.098C14.2974 16.1416 14.2958 17.1852 14.2972 18.2288C14.298 18.8561 14.4689 19.0303 15.0774 19.031C15.5653 19.0316 16.0531 19.0297 16.5408 19.0327C16.6697 19.0334 16.8196 19.0324 16.8793 19.1697C16.9408 19.3114 16.7995 19.3822 16.7196 19.4637C15.3446 20.8652 13.967 22.2642 12.5923 23.666C12.4617 23.7992 12.3204 23.9138 12.1562 24C12.0457 24 11.9352 24 11.8247 24Z" fill="#FF392E"/>
<path d="M0 11.8036C0.0893427 11.64 0.206888 11.5008 0.338417 11.3693C1.71353 9.99535 3.08562 8.61819 4.46088 7.24433C4.57441 7.13089 4.68285 6.94325 4.86766 7.01651C5.06596 7.09506 5.02164 7.3126 5.02174 7.48515C5.02334 10.475 5.02296 13.465 5.02258 16.4549C5.02258 16.5293 5.02598 16.6051 5.01372 16.6779C4.97695 16.8964 4.84824 16.9621 4.65852 16.8532C4.58035 16.8083 4.51265 16.7409 4.44825 16.6756C3.03169 15.2381 1.61608 13.7996 0.200919 12.3606C0.131133 12.2897 0.0668445 12.2132 0 12.1392C0 12.0274 0 11.9155 0 11.8036Z" fill="#FF392E"/>
<path d="M19.1206 11.922C19.1206 10.468 19.1204 9.01411 19.121 7.56012C19.121 7.46706 19.1125 7.37088 19.1322 7.28158C19.1729 7.09734 19.2785 7.04953 19.4281 7.17899C19.5188 7.25744 19.5988 7.34853 19.6844 7.43311C21.0221 8.75433 22.36 10.0753 23.6975 11.3968C23.8293 11.5271 23.9626 11.6558 23.9928 11.8555C24.0231 12.0569 23.9581 12.2129 23.8148 12.3561C22.3802 13.7903 20.9491 15.2281 19.5173 16.665C19.4452 16.7373 19.3749 16.831 19.2604 16.7886C19.1377 16.743 19.1237 16.6209 19.123 16.5076C19.1202 15.9577 19.1208 15.4078 19.1207 14.8579C19.1204 13.8793 19.1206 12.9006 19.1206 11.922Z" fill="#FF392E"/>
</svg>
