<svg width="24" height="24" viewBox="0 0 24 24" fill="none" xmlns="http://www.w3.org/2000/svg">
<rect width="24" height="24" rx="12" fill="#FF7F00"/>
<path d="M14.3857 5C12.7372 5 11.5427 5.69283 10.7782 6.38567C10.6348 5.40614 10.0853 5.09556 8.77133 5.09556C8.5802 5.09556 8.22184 5.09556 8.05461 5.09556C6.45392 5.09556 6 5.54949 6 7.15017C6 9.58703 6 14.4846 6 16.9454C6 18.5461 6.45392 19 8.05461 19C8.24573 19 8.6041 19 8.77133 19C10.372 19 10.8259 18.5461 10.8259 16.9454C10.8259 16.2526 10.8259 14.198 10.8259 14.198C11.5427 14.843 12.6655 15.4881 14.3857 15.4881C17.1092 15.4881 19.3072 13.1945 19.3072 10.2321C19.3072 7.29352 17.587 5 14.3857 5ZM12.3549 12.6689C11.5904 12.6689 10.8259 12.215 10.8259 11.0921C10.8259 10.3515 10.8259 10.0887 10.8259 9.46758C10.8259 8.32082 11.6382 7.79522 12.3549 7.79522C14.0034 7.79522 14.4812 9.25256 14.4812 10.2321C14.4812 11.2116 14.0751 12.6689 12.3549 12.6689Z" fill="white"/>
</svg>
