<svg width="24" height="24" viewBox="0 0 24 24" fill="none" xmlns="http://www.w3.org/2000/svg">
<path d="M10.9888 11.2982C9.90907 10.5115 9.14644 9.21169 9.14644 7.67804C9.14644 5.33901 10.8624 3.44274 12.9791 3.44274C15.0958 3.44274 16.8118 5.33901 16.8118 7.67804C16.8118 9.56375 15.6963 11.1608 14.1551 11.7093C14.4391 11.8064 14.72 11.9166 15.0054 12.0112C15.554 12.1932 16.1134 12.3412 16.6668 12.5041C17.2333 12.6712 17.7956 12.8323 18.3735 12.9439C18.4407 12.9569 18.5079 12.9697 18.5751 12.9825C19.4269 11.6424 19.9272 10.0097 19.9272 8.24772C19.9272 3.6926 16.5856 0 12.4636 0C8.34157 0 5 3.6926 5 8.24772C5 14.4892 12.4636 24 12.4636 24C12.4636 24 17.26 18.5511 19.3669 14.1424C19.3467 14.1385 12.105 12.1115 10.9888 11.2982Z" fill="#FABC26"/>
</svg>
